<?xml version="1.0" standalone="no"?>
<!DOCTYPE svg PUBLIC "-//W3C//DTD SVG 20010904//EN"
 "http://www.w3.org/TR/2001/REC-SVG-20010904/DTD/svg10.dtd">
<svg version="1.0" xmlns="http://www.w3.org/2000/svg"
 width="1367.000000pt" height="509.000000pt" viewBox="0 0 1367.000000 509.000000"
 preserveAspectRatio="xMidYMid meet">

<g transform="translate(0.000000,509.000000) scale(0.100000,-0.100000)"
fill="#000000" stroke="none">
<path d="M0 2545 l0 -2545 6835 0 6835 0 0 2545 0 2545 -6835 0 -6835 0 0
-2545z m3350 1670 l0 -235 -235 0 -235 0 0 235 0 235 235 0 235 0 0 -235z
m8000 0 l0 -235 -235 0 -235 0 0 235 0 235 235 0 235 0 0 -235z m-9880 -640
l0 -765 60 0 60 0 0 -60 0 -60 60 0 60 0 0 -60 0 -60 55 0 55 0 0 60 0 60 60
0 60 0 0 60 0 60 60 0 60 0 0 765 0 765 235 0 235 0 0 -885 0 -885 -60 0 -60
0 0 -60 0 -60 -60 0 -60 0 0 -60 0 -60 -55 0 -55 0 0 -55 0 -55 -60 0 -60 0 0
-60 0 -60 -60 0 -60 0 0 -60 0 -60 -175 0 -175 0 0 60 0 60 -60 0 -60 0 0 60
0 60 -60 0 -60 0 0 55 0 55 -60 0 -60 0 0 60 0 60 -55 0 -55 0 0 60 0 60 -60
0 -60 0 0 885 0 885 235 0 235 0 0 -765z m8350 -180 l0 -945 355 0 355 0 0
-235 0 -235 -590 0 -590 0 0 1180 0 1180 235 0 235 0 0 -945z m2590 530 l0
-295 175 0 175 0 0 -180 0 -180 -175 0 -175 0 0 -410 0 -410 55 0 55 0 0 -55
0 -55 120 0 120 0 0 -180 0 -180 -235 0 -235 0 0 60 0 60 -120 0 -120 0 0 115
0 115 -60 0 -60 0 0 470 0 470 -115 0 -115 0 0 180 0 180 115 0 115 0 0 115 0
115 60 0 60 0 0 60 0 60 60 0 60 0 0 60 0 60 60 0 60 0 0 60 0 60 60 0 60 0 0
-295z m-7530 -235 l0 -60 115 0 115 0 0 -120 0 -120 60 0 60 0 0 -115 0 -115
-235 0 -235 0 0 55 0 55 -60 0 -60 0 0 60 0 60 -175 0 -175 0 0 -60 0 -60 -60
0 -60 0 0 -55 0 -55 60 0 60 0 0 -60 0 -60 295 0 295 0 0 -60 0 -60 115 0 115
0 0 -115 0 -115 60 0 60 0 0 -180 0 -180 -60 0 -60 0 0 -115 0 -115 -115 0
-115 0 0 -60 0 -60 -415 0 -415 0 0 60 0 60 -115 0 -115 0 0 115 0 115 -60 0
-60 0 0 120 0 120 235 0 235 0 0 -60 0 -60 60 0 60 0 0 -55 0 -55 175 0 175 0
0 55 0 55 60 0 60 0 0 60 0 60 -60 0 -60 0 0 60 0 60 -295 0 -295 0 0 55 0 55
-115 0 -115 0 0 120 0 120 -60 0 -60 0 0 175 0 175 60 0 60 0 0 120 0 120 115
0 115 0 0 60 0 60 415 0 415 0 0 -60z m1180 -590 l0 -650 60 0 60 0 0 -60 0
-60 173 2 172 3 3 58 3 57 54 0 55 0 2 648 3 647 238 3 237 2 0 -885 0 -885
-240 0 -240 0 0 60 0 60 -55 0 -55 0 0 -60 0 -60 -295 0 -295 0 0 60 0 60
-120 0 -120 0 0 115 0 115 -55 0 -55 0 0 710 0 710 235 0 235 0 0 -650z m2588
588 l3 -58 114 0 115 0 0 -120 0 -120 60 0 60 0 0 -705 0 -705 -240 0 -240 0
0 60 0 60 -55 0 -55 0 0 -60 0 -60 -295 0 -295 0 0 60 0 60 -120 0 -120 0 0
115 0 115 -55 0 -55 0 0 120 0 120 55 0 54 0 3 118 3 117 118 3 117 3 0 54 0
55 350 0 350 0 0 175 0 175 -55 0 -55 0 0 60 0 60 -175 0 -175 0 0 -60 0 -60
-60 0 -59 0 -3 -57 -3 -58 -232 -3 -233 -2 0 120 0 120 55 0 55 0 0 120 0 120
120 0 120 0 0 60 0 60 413 -2 412 -3 3 -57z m-5298 -883 l0 -825 -235 0 -235
0 0 825 0 825 235 0 235 0 0 -825z m8000 0 l0 -825 -235 0 -235 0 0 825 0 825
235 0 235 0 0 -825z m-7708 -1544 l-5 -110 59 24 c128 53 204 -15 204 -181 -1
-128 -47 -202 -134 -211 -36 -4 -54 0 -92 21 -25 14 -48 26 -49 26 -2 0 -6
-12 -9 -26 -5 -17 -12 -24 -24 -22 -15 3 -18 28 -24 251 -3 136 -9 255 -12
263 -3 7 -16 14 -29 14 -30 0 -36 6 -30 30 6 21 25 27 99 29 l50 1 -4 -109z
m5645 77 c-3 -18 -9 -138 -13 -265 l-7 -233 38 0 c30 0 36 -3 31 -16 -3 -9 -6
-20 -6 -25 0 -5 -43 -9 -95 -9 -77 0 -95 3 -95 15 0 8 14 18 33 23 29 7 32 12
35 53 2 24 1 131 -3 237 l-7 192 -29 0 c-31 0 -42 11 -33 34 7 17 29 23 103
25 l53 1 -5 -32z m617 12 c11 -11 13 -27 9 -58 -5 -39 -8 -43 -31 -40 -19 2
-28 11 -34 34 -9 34 -31 46 -65 33 -22 -8 -43 -56 -43 -100 0 -26 3 -29 51
-35 38 -5 49 -10 45 -21 -4 -8 -6 -19 -6 -24 0 -5 -20 -9 -45 -9 l-45 0 0
-145 0 -145 38 0 c45 0 52 -4 45 -31 -5 -17 -15 -19 -108 -19 -82 0 -104 3
-109 15 -4 10 4 17 27 23 l32 8 3 147 3 147 -31 0 c-24 0 -31 4 -28 17 2 9 14
20 28 23 17 4 26 14 28 30 10 99 15 115 43 143 28 28 33 29 104 25 48 -2 80
-9 89 -18z m-5459 -55 c0 -39 -1 -40 -37 -43 l-38 -3 0 46 0 46 38 -3 c36 -3
37 -4 37 -43z m2760 0 c0 -39 -1 -40 -37 -43 l-38 -3 0 46 0 46 38 -3 c36 -3
37 -4 37 -43z m2310 0 c0 -39 -1 -40 -37 -43 l-38 -3 0 46 0 46 38 -3 c36 -3
37 -4 37 -43z m-3365 -60 l0 -44 50 -7 c55 -7 54 -7 40 -35 -8 -14 -21 -19
-50 -19 l-40 0 0 -139 0 -139 40 -7 c30 -5 40 -11 40 -26 0 -21 -31 -32 -94
-33 -51 -1 -54 7 -55 197 l-1 147 -30 0 c-37 0 -40 21 -6 43 13 9 36 36 52 61
37 59 54 59 54 1z m2230 0 l0 -44 50 -7 c55 -7 54 -7 40 -35 -8 -14 -21 -19
-50 -19 l-40 0 0 -139 0 -139 40 -7 c30 -5 40 -11 40 -26 0 -21 -31 -32 -94
-33 -51 -1 -54 7 -55 197 l-1 147 -30 0 c-37 0 -40 21 -6 43 13 9 36 36 52 61
37 59 54 59 54 1z m-4132 -50 c19 -5 22 -13 22 -56 0 -59 -13 -89 -40 -89 -15
0 -20 10 -26 45 -7 51 -20 55 -79 31 l-35 -15 0 -130 0 -131 31 0 c26 0 30 -3
27 -22 -3 -22 -8 -23 -95 -26 -78 -2 -93 0 -93 12 0 9 14 19 33 24 29 7 32 12
32 45 -1 20 -2 86 -3 146 l-2 110 -32 3 c-25 2 -34 8 -36 24 -4 25 19 34 86
34 36 0 45 -4 49 -20 7 -26 12 -25 64 5 24 13 51 23 59 21 8 -3 25 -7 38 -11z
m632 -14 c43 -31 50 -57 50 -198 l0 -133 31 0 c26 0 30 -3 27 -22 -3 -22 -8
-23 -95 -26 -76 -2 -93 0 -93 12 0 8 15 19 33 25 l32 11 -3 97 c-3 123 -9 158
-28 178 -18 18 -78 20 -123 4 l-31 -11 0 -134 0 -134 31 0 c26 0 30 -3 27 -22
-3 -22 -8 -23 -95 -26 -78 -2 -93 0 -93 12 0 9 14 19 33 24 29 7 32 12 32 45
-1 20 -2 86 -3 146 l-2 110 -32 3 c-25 2 -34 8 -36 24 -4 25 19 34 86 34 35 0
45 -4 49 -19 5 -19 7 -18 56 5 58 27 104 25 147 -5z m462 14 c47 0 89 -3 93
-7 4 -3 4 -16 0 -28 -6 -20 -12 -22 -51 -17 -39 4 -42 3 -34 -14 6 -10 10 -42
10 -72 0 -89 -55 -137 -158 -137 -42 0 -51 -4 -62 -25 -7 -14 -10 -28 -6 -32
4 -5 49 -9 99 -11 51 -1 102 -5 115 -8 36 -7 62 -40 62 -78 0 -129 -240 -207
-343 -112 -42 39 -44 69 -8 118 l31 42 -20 21 c-27 28 -25 43 7 77 l27 28 -22
23 c-30 31 -44 83 -36 130 7 43 52 94 92 103 15 3 32 7 37 9 6 2 26 1 45 -2
19 -4 74 -7 122 -8z m576 -6 c21 -8 23 -14 20 -61 -3 -46 -6 -53 -25 -56 -18
-3 -24 4 -34 37 -9 32 -18 41 -41 46 -60 14 -103 -50 -60 -87 9 -9 45 -30 79
-47 34 -17 71 -41 83 -53 24 -26 27 -93 5 -124 -33 -47 -124 -67 -205 -44 -62
17 -71 29 -62 80 7 39 11 45 32 45 21 0 26 -5 28 -35 4 -42 15 -50 67 -50 49
0 85 23 85 54 0 29 -19 46 -97 85 -34 17 -71 41 -83 53 -25 28 -27 94 -2 126
36 46 131 60 210 31z m667 -8 c17 -9 40 -37 53 -61 20 -38 23 -57 20 -125 -4
-93 -25 -144 -72 -178 -44 -31 -171 -32 -213 -1 -97 71 -99 286 -2 357 53 39
152 42 214 8z m423 14 c19 -5 22 -13 22 -56 0 -59 -13 -89 -40 -89 -15 0 -20
10 -26 45 -7 51 -20 55 -79 31 l-35 -15 0 -130 0 -131 31 0 c26 0 30 -3 27
-22 -3 -22 -8 -23 -95 -26 -78 -2 -93 0 -93 12 0 9 14 19 33 24 29 7 32 12 32
45 -1 20 -2 86 -3 146 l-2 110 -32 3 c-25 2 -34 8 -36 24 -4 25 19 34 86 34
36 0 45 -4 49 -20 7 -26 12 -25 64 5 24 13 51 23 59 21 8 -3 25 -7 38 -11z
m573 -16 c33 -23 59 -86 59 -139 l0 -40 -129 0 -130 0 6 -37 c16 -102 75 -137
176 -104 39 13 67 9 67 -9 0 -17 -101 -60 -143 -60 -113 0 -185 94 -175 230 5
64 33 125 71 153 51 39 147 42 198 6z m357 10 c21 -8 23 -14 20 -61 -3 -46 -6
-53 -25 -56 -18 -3 -24 4 -34 37 -9 32 -18 41 -41 46 -60 14 -103 -50 -60 -87
9 -9 45 -30 79 -47 34 -17 71 -41 83 -53 24 -26 27 -93 5 -124 -33 -47 -124
-67 -205 -44 -62 17 -71 29 -62 80 7 39 11 45 32 45 21 0 26 -5 28 -35 4 -42
15 -50 67 -50 49 0 85 23 85 54 0 29 -19 46 -97 85 -34 17 -71 41 -83 53 -25
28 -27 94 -2 126 36 46 131 60 210 31z m877 -8 c17 -9 40 -37 53 -61 20 -38
23 -57 20 -125 -4 -93 -25 -144 -72 -178 -44 -31 -171 -32 -213 -1 -97 71 -99
286 -2 357 53 39 152 42 214 8z m1356 -2 c33 -23 59 -86 59 -139 l0 -40 -129
0 -130 0 6 -37 c16 -102 75 -137 176 -104 39 13 67 9 67 -9 0 -17 -101 -60
-143 -60 -113 0 -185 94 -175 230 5 64 33 125 71 153 51 39 147 42 198 6z
m-5715 -1 c-3 -13 -9 -92 -13 -175 l-6 -153 31 0 c27 0 32 -4 32 -25 0 -25 0
-25 -95 -25 -78 0 -95 3 -95 15 0 9 12 18 30 22 17 3 33 10 36 14 3 5 2 72 -2
149 l-7 139 -31 3 c-23 2 -31 8 -31 23 0 23 29 33 104 34 51 1 53 0 47 -21z
m2760 0 c-3 -13 -9 -92 -13 -175 l-6 -153 31 0 c27 0 32 -4 32 -25 0 -25 0
-25 -95 -25 -78 0 -95 3 -95 15 0 9 12 18 30 22 17 3 33 10 36 14 3 5 2 72 -2
149 l-7 139 -31 3 c-23 2 -31 8 -31 23 0 23 29 33 104 34 51 1 53 0 47 -21z
m2310 0 c-3 -13 -9 -92 -13 -175 l-6 -153 31 0 c27 0 32 -4 32 -25 0 -25 0
-25 -95 -25 -78 0 -95 3 -95 15 0 9 12 18 30 22 17 3 33 10 36 14 3 5 2 72 -2
149 l-7 139 -31 3 c-23 2 -31 8 -31 23 0 23 29 33 104 34 51 1 53 0 47 -21z"/>
<path d="M8060 2625 l0 -55 -60 0 -60 0 0 -60 0 -60 60 0 60 0 0 -60 0 -60
230 0 230 0 0 175 0 175 -230 0 -230 0 0 -55z"/>
<path d="M3669 1119 c-23 -9 -27 -17 -33 -71 -3 -33 -6 -85 -6 -114 0 -53 1
-54 41 -74 55 -29 106 -24 133 13 17 24 21 43 21 112 0 108 -19 139 -86 142
-24 1 -56 -3 -70 -8z"/>
<path d="M5163 1140 c-46 -19 -59 -107 -22 -154 16 -21 29 -26 64 -26 35 0 48
5 64 26 39 50 23 134 -30 153 -37 13 -46 13 -76 1z"/>
<path d="M5120 748 c-13 -31 -16 -47 -9 -60 38 -72 229 -33 229 46 0 40 -34
56 -123 56 l-78 0 -19 -42z"/>
<path d="M6434 1139 c-35 -10 -53 -41 -61 -110 -14 -122 27 -199 107 -199 80
0 124 85 105 202 -11 68 -30 96 -73 107 -20 6 -39 11 -42 10 -3 0 -19 -5 -36
-10z"/>
<path d="M7475 1145 c-5 -2 -22 -6 -37 -9 -18 -4 -29 -16 -37 -37 -20 -58 -19
-59 79 -59 83 0 90 2 90 20 0 35 -22 69 -53 80 -16 5 -30 10 -31 9 -1 0 -5 -2
-11 -4z"/>
<path d="M8664 1139 c-35 -10 -53 -41 -61 -110 -14 -122 27 -199 107 -199 80
0 124 85 105 202 -11 68 -30 96 -73 107 -20 6 -39 11 -42 10 -3 0 -19 -5 -36
-10z"/>
<path d="M10065 1145 c-5 -2 -22 -6 -37 -9 -18 -4 -29 -16 -37 -37 -20 -58
-19 -59 79 -59 83 0 90 2 90 20 0 35 -22 69 -53 80 -16 5 -30 10 -31 9 -1 0
-5 -2 -11 -4z"/>
</g>
</svg>
